<svg xmlns="http://www.w3.org/2000/svg" width="760" height="380" viewBox="0 0 760 380" font-family="SFMono-Regular, Menlo, Consolas, monospace">
  <defs>
    <linearGradient id="sceneBg" x1="0" y1="0" x2="0" y2="1">
      <stop offset="0" stop-color="#071a10"/>
      <stop offset="1" stop-color="#0a2418"/>
    </linearGradient>
    <linearGradient id="wristBg" x1="0" y1="0" x2="0" y2="1">
      <stop offset="0" stop-color="#1a0a0d"/>
      <stop offset="1" stop-color="#240c10"/>
    </linearGradient>
  </defs>

  <rect x="0" y="0" width="760" height="380" fill="#141414"/>

  <!-- title strip -->
  <rect x="0" y="0" width="760" height="22" fill="#20272b"/>
  <text x="12" y="15" fill="#cdd6d4" font-size="13">reading a frame  ·  task 2, episode 5, step 120</text>

  <!-- left: scene camera -->
  <rect x="8" y="28" width="368" height="150" fill="url(#sceneBg)" stroke="#2e5c43" stroke-width="1.5"/>
  <rect x="8" y="28" width="368" height="26" fill="#10281e"/>
  <text x="16" y="45" fill="#7fd4a8" font-size="12">instruction</text>
  <text x="140" y="45" fill="#cfe8da" font-size="12" font-weight="bold">put the moka pot on the stove</text>
  <text x="16" y="66" fill="#9fbdb0" font-size="11">task 2    ep 5    step 120</text>
  <text x="16" y="84" fill="#9fbdb0" font-size="11">A_learned    v25    goal 1/2</text>

  <text x="16" y="116" fill="#6a8f7e" font-size="10">scene camera</text>
  <ellipse cx="60" cy="140" rx="34" ry="12" fill="none" stroke="#3d6e55" stroke-width="1.2"/>
  <rect x="150" y="96" width="52" height="40" rx="3" fill="none" stroke="#3d6e55" stroke-width="1.2"/>
  <line x1="172" y1="96" x2="172" y2="136" stroke="#3d6e55" stroke-width="1.2"/>

  <!-- right: wrist camera -->
  <rect x="384" y="28" width="368" height="150" fill="url(#wristBg)" stroke="#5c2e33" stroke-width="1.5"/>
  <rect x="384" y="28" width="368" height="26" fill="#281019"/>
  <text x="392" y="45" fill="#e89aa6" font-size="12">wrist</text>
  <text x="392" y="70" fill="#cfb0b6" font-size="11">x  turnon(flat_stove_1)</text>
  <text x="392" y="88" fill="#8f7a80" font-size="11">.  on(moka_pot_1, flat_stove_1)</text>
  <text x="392" y="116" fill="#6a5560" font-size="10">wrist camera</text>
  <ellipse cx="560" cy="142" rx="40" ry="16" fill="none" stroke="#5c3a40" stroke-width="1.2"/>

  <!-- footer: box strip -->
  <rect x="8" y="186" width="744" height="34" fill="#1d1d1d" stroke="#333" stroke-width="1"/>
  <g font-size="11" fill="#cfd6d4">
    <rect x="16" y="194" width="120" height="18" rx="3" fill="#0b3d63" stroke="#66b8ff"/>
    <text x="24" y="207">p0:s8</text>
    <rect x="168" y="194" width="120" height="18" rx="3" fill="#0b3d63" stroke="#66b8ff"/>
    <text x="176" y="207">p1:s9</text>
    <rect x="320" y="194" width="120" height="18" rx="3" fill="#0b3d63" stroke="#66b8ff"/>
    <text x="328" y="207">p2:s10</text>
  </g>

  <!-- S2 (cyan) -->
  <rect x="20" y="236" width="86" height="24" rx="4" fill="#093b63" stroke="#2fd8ff"/>
  <text x="30" y="252" fill="#2fd8ff" font-size="12" font-weight="bold">S2</text>
  <text x="120" y="248" fill="#dfeef6" font-size="12">phase 2      skill 10</text>
  <text x="120" y="266" fill="#bcd6e6" font-size="11">place the moka pot on the stove</text>

  <!-- oracle (green) -->
  <rect x="20" y="286" width="86" height="24" rx="4" fill="#0b3d1e" stroke="#2fff8a"/>
  <text x="30" y="302" fill="#2fff8a" font-size="12" font-weight="bold">oracle</text>
  <text x="120" y="298" fill="#e6f6ec" font-size="12">phase 1      skill 9</text>
  <text x="120" y="316" fill="#bce6cc" font-size="11">grasp the moka pot</text>

</svg>
